<?xml version="1.0" encoding="UTF-8"?>
<svg width="69px" height="26px" viewBox="0 0 69 26" version="1.1" xmlns="http://www.w3.org/2000/svg" xmlns:xlink="http://www.w3.org/1999/xlink">
    <title>组件/LOGO/icon+text（浩客）</title>
    <defs>
        <polygon id="path-1" points="0 0 26.1025567 0 26.1025567 26 0 26"></polygon>
        <polygon id="path-3" points="0.0379083547 0 7.83076923 0 7.83076923 15.5245653 0.0379083547 15.5245653"></polygon>
        <polygon id="path-5" points="0 0 7.79286088 0 7.79286088 15.5245653 0 15.5245653"></polygon>
    </defs>
    <g id="页面-1" stroke="none" stroke-width="1" fill="none" fill-rule="evenodd">
        <g id="客户体验仪表盘" transform="translate(-15.000000, -9.000000)">
            <g id="组件/LOGO/icon+text（浩客）" transform="translate(15.000000, 9.000000)">
                <g id="组件/LOGO/icon" fill-rule="evenodd" stroke-width="1">
                    <g id="Page-1">
                        <g id="Group-3">
                            <mask id="mask-2" fill="white">
                                <use xlink:href="#path-1"></use>
                            </mask>
                            <g id="Clip-2"></g>
                            <path d="M12.3553529,25.7348347 L0.346781265,15.015208 C-0.0837370256,14.6307547 -0.11819241,13.971048 0.270039726,13.5443013 L12.2784373,0.341328 C12.692424,-0.113845333 13.4102445,-0.113845333 13.8240572,0.341328 L25.8326288,13.5443013 C26.2206869,13.971048 26.1862315,14.6307547 25.7557132,15.015208 L13.7473156,25.7348347 C13.3512527,26.0884347 12.7514158,26.0884347 12.3553529,25.7348347" id="Fill-1" fill="#B3E0FF" mask="url(#mask-2)"></path>
                        </g>
                        <path d="M13.0512821,26 C12.8022636,26 12.5534191,25.9116 12.3553877,25.7348 L5.60526462,19.7092133 C5.17474632,19.32476 5.14029094,18.6650533 5.52834906,18.2383067 L12.2784721,10.8166933 C12.4853785,10.58928 12.7683303,10.4754 13.0512821,10.4754 L13.0512821,26 Z" id="Fill-4" fill="#3DA2ED"></path>
                        <path d="M13.0512821,26 C13.3003005,26 13.549145,25.9116 13.7471764,25.7348 L20.4972995,19.7092133 C20.9278178,19.32476 20.9622732,18.6650533 20.574215,18.2383067 L13.824092,10.8166933 C13.6171856,10.58928 13.3342338,10.4754 13.0512821,10.4754 L13.0512821,26 Z" id="Fill-6" fill="#0052CC"></path>
                        <path d="M13.0512821,20.7641893 C12.8022636,20.7641893 12.5534191,20.6757893 12.3553877,20.4989893 L5.60526462,14.4734027 C5.17474632,14.0889493 5.14029094,13.4292427 5.52834906,13.002496 L12.2784721,5.58088267 C12.4853785,5.35346933 12.7683303,5.23958933 13.0512821,5.23958933 L13.0512821,20.7641893 Z" id="Fill-8" fill="#E66827"></path>
                        <path d="M13.0512821,5.239624 C13.3342338,5.239624 13.6171856,5.35333067 13.824092,5.58091733 L20.574215,13.0025307 C20.9622732,13.4292773 20.9278178,14.088984 20.4972995,14.473264 L13.7471764,20.499024 C13.549145,20.675824 13.3003005,20.764224 13.0512821,20.764224 L13.0512821,5.239624" id="Fill-10" fill="#CB2032"></path>
                        <g id="Group-14" transform="translate(5.220513, 0.000000)">
                            <mask id="mask-4" fill="white">
                                <use xlink:href="#path-3"></use>
                            </mask>
                            <g id="Clip-13"></g>
                            <path d="M7.83076923,15.5245653 C7.58175077,15.5245653 7.33290632,15.4361653 7.13487487,15.2593653 L0.384751795,9.23377867 C-0.0457664957,8.84932533 -0.0802218803,8.18961867 0.307836239,7.762872 L7.05795932,0.341258667 C7.26486564,0.113845333 7.54781744,-3.46666667e-05 7.83076923,-3.46666667e-05 L7.83076923,15.5245653 Z" id="Fill-12" fill="#FFDC4D" mask="url(#mask-4)"></path>
                        </g>
                        <g id="Group-17" transform="translate(13.051282, 0.000000)">
                            <mask id="mask-6" fill="white">
                                <use xlink:href="#path-5"></use>
                            </mask>
                            <g id="Clip-16"></g>
                            <path d="M0,15.5245653 C0.249018462,15.5245653 0.497862906,15.4361653 0.695894359,15.2593653 L7.44601744,9.23377867 C7.87653573,8.84932533 7.91099111,8.18961867 7.52293299,7.762872 L0.772809915,0.341258667 C0.56590359,0.113845333 0.282951795,-3.46666667e-05 0,-3.46666667e-05 L0,15.5245653 Z" id="Fill-15" fill="#F9AD40" mask="url(#mask-6)"></path>
                        </g>
                    </g>
                </g>
                <path d="M65.4838403,15.9546548 L65.4838403,20.7666488 C65.4838403,21.1116672 65.2295742,21.3972986 64.8982048,21.4463802 L64.796658,21.453831 L53.7565121,21.453831 L53.7565121,16.6418371 C53.7565121,16.2968186 54.0107782,16.0111872 54.3421476,15.9621056 L54.4436943,15.9546548 L65.4838403,15.9546548 Z M35.6341844,13.8381333 C35.080129,16.7215048 34.4924067,19.068442 33.855163,21.0368324 C33.8158182,21.1583651 33.7001491,21.3971385 33.350645,21.3971385 L33.350645,21.3971385 L32.2564103,21.3971385 C33.1093819,18.8307693 33.6672926,16.8002198 34.1957306,14.1979539 C34.2198379,14.0792386 34.297807,13.8381333 34.6623385,13.8381333 L34.6623385,13.8381333 Z M47.8928479,14.5562388 L47.8928479,20.7099562 C47.8928479,21.0549747 47.6385818,21.3406061 47.3072124,21.3896877 L47.2056656,21.3971385 L37.7595255,21.3971385 L37.7595255,15.2434211 C37.7595255,14.8984027 38.0137916,14.6127712 38.345161,14.5636896 L38.4467077,14.5562388 L47.8928479,14.5562388 Z M63.9657396,16.956223 L55.6182039,16.956223 C55.4521638,16.956223 55.3136319,17.0739998 55.2815934,17.2305685 L55.2746128,17.2998141 L55.2746128,20.4522629 L63.6221484,20.4522629 C63.7881886,20.4522629 63.9267204,20.334486 63.958759,20.1779173 L63.9657396,20.1086717 L63.9657396,16.956223 Z M46.3937234,15.6144995 L39.6022411,15.6144995 C39.436201,15.6144995 39.2976691,15.7322764 39.2656305,15.8888451 L39.2586499,15.9580907 L39.2586499,20.3388778 L46.0501323,20.3388778 C46.2161724,20.3388778 46.3547043,20.2211009 46.3867429,20.0645322 L46.3937234,19.9952866 L46.3937234,15.6144995 Z M58.3487668,7.82872422 C58.1362327,8.22179249 57.9236986,8.56648312 57.682017,8.89182271 L57.4948351,9.13265261 L65.6736029,9.13265261 L65.6736029,10.0964258 C64.3262885,11.4192517 62.9220453,12.4397174 61.2521345,13.2523104 C63.0142157,13.7962888 65.054454,14.209913 67.524784,14.5385741 L68.1025641,14.6129314 L68.1025641,15.7089871 C64.4780986,15.2932418 61.802446,14.783009 59.5632474,13.9515184 C57.4484487,14.7189674 54.9274175,15.2504308 51.6804338,15.6573462 L51.0998358,15.7278846 L51.0998358,15.0708739 C51.0998358,14.7327856 51.3457583,14.6040004 51.4672035,14.5896149 C54.0148181,14.2878434 56.1200073,13.8475531 57.9312891,13.2523104 C56.8306661,12.7231801 55.8439006,12.0806646 54.8381588,11.3058666 C54.0909686,11.7027144 53.2420775,12.0416885 52.2660603,12.3481087 L51.8399099,12.4775124 L51.8399099,11.7390464 C51.8399099,11.39465 52.0826777,11.2360557 52.2000408,11.1913859 C54.2433944,10.4136613 55.4858772,9.56257337 56.5364076,8.13719003 C56.6033696,8.04633452 56.6629836,7.86574042 57.034305,7.83365601 L57.1553717,7.82872422 L58.3487668,7.82872422 Z M33.692905,9.34052525 C34.0332782,9.34052525 34.15891,9.53694023 34.2102281,9.64039522 C34.6723972,10.572106 35.2052939,11.7763371 35.6152082,12.9499502 L35.6152082,12.9499502 L34.1730124,12.9499502 C33.8124635,11.910587 33.2241995,10.5121711 32.6928642,9.34052525 L32.6928642,9.34052525 Z M63.6810957,10.0964258 L56.5839747,10.0964258 C56.3942121,10.2665034 56.1854733,10.436581 55.9767344,10.5877611 C57.0963337,11.4192517 58.2728618,12.0995621 59.5822237,12.64759 C61.1572532,11.9672796 62.4855913,11.1168915 63.6810957,10.0964258 Z M43.9647623,4.59724951 L43.9647623,6.88384857 L48.3293019,6.88384857 L48.3293019,7.59851815 C48.3293019,7.7882783 48.1754709,7.9421093 47.9857108,7.9421093 L47.9857108,7.9421093 L44.3083534,7.9421093 C44.1185932,7.9421093 43.9647623,8.09594029 43.9647623,8.28570044 L43.9647623,8.28570044 L43.9647623,11.4948417 L49.2401623,11.4948417 L49.2401623,12.2095113 C49.2401623,12.3992715 49.0863313,12.5531025 48.8965712,12.5531025 L48.8965712,12.5531025 L36.4881161,12.5531025 L36.4881161,11.8384329 C36.4881161,11.6486727 36.6419471,11.4948417 36.8317072,11.4948417 L36.8317072,11.4948417 L42.1030704,11.4948417 C42.2928305,11.4948417 42.4466615,11.3410107 42.4466615,11.1512506 L42.4466615,11.1512506 L42.4466615,7.9421093 L39.41046,7.9421093 C38.7842435,9.03816505 37.8923593,9.71847551 36.6019736,10.2854009 L36.6019736,10.2854009 L36.6019736,9.00037002 C37.7997832,8.15836607 38.425304,7.23494586 38.7820968,5.64062272 C38.8096725,5.51740093 38.9391062,5.25866246 39.2579828,5.25866246 L39.2579828,5.25866246 L40.2833679,5.25866246 C40.1695104,5.88228039 40.0366766,6.41141075 39.8848665,6.88384857 L39.8848665,6.88384857 L42.1030704,6.88384857 C42.2928305,6.88384857 42.4466615,6.73001758 42.4466615,6.54025743 L42.4466615,6.54025743 L42.4466615,4.94084065 C42.4466615,4.7510805 42.6004925,4.59724951 42.7902527,4.59724951 L42.7902527,4.59724951 L43.9647623,4.59724951 Z M60.4930841,4.65394205 L60.4930841,6.052358 L67.5712288,6.052358 L67.5712288,8.31662364 C67.5712288,8.50638379 67.4173978,8.66021479 67.2276377,8.66021479 L67.2276377,8.66021479 L66.0531281,8.66021479 L66.0531281,7.03502868 L53.6256967,7.03502868 C53.4359366,7.03502868 53.2821056,7.18885967 53.2821056,7.37861982 L53.2821056,7.37861982 L53.2821056,8.31662364 C53.2821056,8.50638379 53.1282746,8.66021479 52.9385144,8.66021479 L52.9385144,8.66021479 L51.7640048,8.66021479 L51.7640048,6.39594915 C51.7640048,6.206189 51.9178358,6.052358 52.107596,6.052358 L52.107596,6.052358 L58.4036771,6.052358 C58.5934373,6.052358 58.7472683,5.89852701 58.7472683,5.70876686 L58.7472683,5.70876686 L58.7472683,4.99753319 C58.7472683,4.80777304 58.9010993,4.65394205 59.0908594,4.65394205 L59.0908594,4.65394205 L60.4930841,4.65394205 Z M33.5721975,4.93740474 C33.8691059,4.93740474 34.0175253,5.11388153 34.0643383,5.20716898 C34.5293542,6.13383762 35.0668632,7.37933061 35.4633981,8.54682971 L35.4633981,8.54682971 L34.0212024,8.54682971 C33.6606534,7.5074665 33.0723894,6.09015303 32.5410541,4.93740474 L32.5410541,4.93740474 Z" id="形状结合" fill="#333333" fill-rule="nonzero"></path>
            </g>
        </g>
    </g>
</svg>